<?xml version="1.0" encoding="UTF-8"?>
<svg id="Layer_2" data-name="Layer 2" xmlns="http://www.w3.org/2000/svg" viewBox="0 0 518.3 117.99">
  <defs>
    <style>
      .cls-1 {
        fill: #3f3b1e;
        stroke-width: 0px;
      }
    </style>
  </defs>
  <g id="Layer_1-2" data-name="Layer 1">
    <g>
      <polygon class="cls-1" points="0 115.91 0 115.22 6.92 108.3 6.92 7.44 0 .69 0 0 58.82 0 59.69 11.07 21.63 5.88 21.63 52.77 50.17 51.21 50.17 60.9 21.63 59.34 21.63 110.03 59.69 104.67 58.82 115.91 0 115.91"/>
      <path class="cls-1" d="m131.31,107.78V0l-19.9,3.46v.69l6.92,6.4v35.29c-4.33-8.48-11.42-13.15-21.45-13.15-19.03,0-30.28,16.44-30.28,42.56s11.25,42.73,29.93,42.73c10.21,0,17.47-4.84,21.8-13.32v13.32l19.9-3.11v-.69l-6.92-6.4Zm-12.98-17.47c-2.25,10.9-8.65,17.47-18.17,17.47-13.15,0-20.24-12.63-20.24-32.52s7.09-32.52,20.24-32.52c9.69,0,15.92,6.57,18.17,17.47v30.1Z"/>
      <path class="cls-1" d="m207.43,71.62c0-22.32-10.55-38.93-30.62-38.93s-31.66,16.61-31.66,42.56,11.25,42.73,31.49,42.73c15.92,0,23.87-10.9,30.28-23.18l-4.84-3.11c-6.4,9.69-13.49,15.92-23.01,15.92-12.98,0-20.07-11.25-20.59-31.66h48.96v-4.33Zm-48.79-2.42c1.04-18.68,7.09-29.76,18.17-29.76s16.26,11.07,17.13,29.76h-35.29Z"/>
      <polygon class="cls-1" points="214.34 115.91 214.34 115.22 221.26 108.82 221.26 10.55 214.34 4.15 214.34 3.46 234.24 0 234.24 108.82 241.16 115.22 241.16 115.91 214.34 115.91"/>
      <path class="cls-1" d="m248.94,115.91v-.69l6.92-6.4V43.25l-6.92-6.4v-.69l19.9-3.46v12.46c4.33-8.13,11.42-12.46,20.59-12.46,9.86,0,18.51,5.02,22.14,16.44,3.98-10.55,11.76-16.44,22.32-16.44,12.97,0,23.87,9,23.87,30.45v45.67l6.92,6.4v.69h-26.82v-.69l6.92-6.4v-45.67c0-14.88-6.57-20.41-14.19-20.41-8.48,0-15.74,6.57-17.3,17.3v48.79l6.92,6.4v.69h-26.82v-.69l6.92-6.4v-45.67c0-14.88-7.09-20.41-14.53-20.41-8.13,0-15.4,6.57-16.95,17.3v48.79l6.92,6.4v.69h-26.82Z"/>
      <path class="cls-1" d="m429.73,107.78v-44.63c0-21.45-11.07-30.45-26.64-30.45-16.78,0-29.07,10.03-29.07,19.03,0,3.46,1.9,6.4,6.23,6.4,3.98,0,7.27-2.08,9.52-8.48,2.42-6.92,6.4-10.38,12.8-10.38,7.44,0,14.19,4.84,14.19,22.14v6.75c-6.75.69-13.32,1.38-20.07,2.77-14.88,3.11-25.09,9-25.09,25.26,0,13.67,9.17,21.8,22.14,21.8,10.21,0,18.34-4.84,23.01-13.32v13.32l19.9-3.11v-.69l-6.92-6.4Zm-12.98-16.78c-2.08,10.9-9.17,17.47-18.86,17.47-7.79,0-12.98-3.81-12.98-12.63,0-9.69,4.67-14.01,12.46-16.61,6.57-2.25,12.63-3.63,19.38-4.84v16.61Z"/>
      <path class="cls-1" d="m443.56,115.91v-.69l6.92-6.4V43.25l-6.92-6.4v-.69l19.9-3.46v12.98c4.5-8.3,12.28-12.98,22.66-12.98,14.19,0,25.26,9,25.26,30.45v45.67l6.92,6.4v.69h-26.82v-.69l6.92-6.4v-45.67c0-14.88-7.27-20.24-16.43-20.24-9.69,0-16.26,5.88-18.51,15.92v50l6.92,6.4v.69h-26.82Z"/>
    </g>
  </g>
</svg>